<svg width="24" height="24" fill="none" xmlns="http://www.w3.org/2000/svg"><g clip-path="url(#a)" fill="#2E3A4C"><path d="m12 6.306-8.56 7.056c0 .01-.002.025-.007.045a.203.203 0 0 0-.007.044v7.145c0 .259.094.482.282.67a.916.916 0 0 0 .67.284h5.716v-5.717h3.812v5.717h5.716a.915.915 0 0 0 .67-.284.915.915 0 0 0 .283-.67v-7.145c0-.04-.006-.07-.015-.089L12 6.306Z"/><path d="m23.834 11.754-3.26-2.709V2.971a.463.463 0 0 0-.134-.342.462.462 0 0 0-.342-.134H17.24a.464.464 0 0 0-.343.134.464.464 0 0 0-.133.342v2.903l-3.632-3.037A1.737 1.737 0 0 0 12 2.45c-.436 0-.813.13-1.131.387L.165 11.754a.432.432 0 0 0-.163.32c-.01.134.024.251.104.35l.923 1.102c.08.09.183.144.312.164.12.01.239-.025.358-.104L12 4.996l10.301 8.59c.08.069.184.103.313.103h.045a.508.508 0 0 0 .312-.163l.923-1.102c.08-.1.115-.216.104-.35a.434.434 0 0 0-.164-.32Z"/></g><defs><clipPath id="a"><path fill="#fff" d="M0 0h24v24H0z"/></clipPath></defs></svg>