<svg width="58" height="57" fill="none" xmlns="http://www.w3.org/2000/svg"><g filter="url(#a)"><g clip-path="url(#b)"><rect x="5" y="3" width="48" height="48" rx="12" fill="#fff"/><rect x="5" y="3" width="48" height="48" rx="12" fill="url(#c)"/><path fill-rule="evenodd" clip-rule="evenodd" d="M29 6.058C17.434 6.058 8.058 15.434 8.058 27S17.434 47.942 29 47.942 49.942 38.566 49.942 27 40.566 6.058 29 6.058ZM7.942 27C7.942 15.37 17.37 5.942 29 5.942c11.63 0 21.058 9.428 21.058 21.058 0 11.63-9.428 21.058-21.058 21.058C17.37 48.058 7.942 38.63 7.942 27Z" fill="#D0D5DD"/><path fill-rule="evenodd" clip-rule="evenodd" d="M29 21.117a5.883 5.883 0 1 0 0 11.767 5.883 5.883 0 0 0 0-11.767ZM23 27a6 6 0 1 1 12 0 6 6 0 0 1-12 0Z" fill="#D0D5DD"/><path fill-rule="evenodd" clip-rule="evenodd" d="M29 22.98a4.02 4.02 0 1 0 0 8.04 4.02 4.02 0 0 0 0-8.04ZM24.864 27a4.136 4.136 0 1 1 8.272 0 4.136 4.136 0 0 1-8.272 0Z" fill="#D0D5DD"/><path d="M28.942 3h.116v48h-.116V3Z" fill="#D0D5DD"/><path d="M53 26.941v.117H5v-.117h48Z" fill="#D0D5DD"/><path d="M44.903 3h.116v48h-.116V3ZM20.961 3h.117v48h-.117V3ZM36.922 3h.117v48h-.117V3ZM12.98 3h.117v48h-.116V3Z" fill="#D0D5DD"/><path d="M53 42.902v.117H5v-.117h48ZM53 18.96v.117H5v-.116h48ZM53 34.922v.116H5v-.116h48ZM53 10.98v.117H5v-.117h48Z" fill="#D0D5DD"/><g filter="url(#d)"><circle cx="29" cy="27" r="12" fill="url(#e)"/></g><g filter="url(#f)"><path d="M5 27h48v4.8c0 6.72 0 10.08-1.308 12.648a12 12 0 0 1-5.244 5.244C43.88 51 40.52 51 33.8 51h-9.6c-6.72 0-10.08 0-12.648-1.308a12 12 0 0 1-5.244-5.244C5 41.88 5 38.52 5 31.8V27Z" fill="#fff" fill-opacity=".2"/></g></g><rect x="5.225" y="3.225" width="47.55" height="47.55" rx="11.775" stroke="#D0D5DD" stroke-width=".45"/></g><defs><filter id="a" x=".5" y="0" width="57" height="57" filterUnits="userSpaceOnUse" color-interpolation-filters="sRGB"><feFlood flood-opacity="0" result="BackgroundImageFix"/><feColorMatrix in="SourceAlpha" values="0 0 0 0 0 0 0 0 0 0 0 0 0 0 0 0 0 0 127 0" result="hardAlpha"/><feOffset dy="1.5"/><feGaussianBlur stdDeviation="1.5"/><feColorMatrix values="0 0 0 0 0.0627451 0 0 0 0 0.0941176 0 0 0 0 0.156863 0 0 0 0.06 0"/><feBlend in2="BackgroundImageFix" result="effect1_dropShadow_4151_187429"/><feColorMatrix in="SourceAlpha" values="0 0 0 0 0 0 0 0 0 0 0 0 0 0 0 0 0 0 127 0" result="hardAlpha"/><feOffset dy="1.5"/><feGaussianBlur stdDeviation="2.25"/><feColorMatrix values="0 0 0 0 0.0627451 0 0 0 0 0.0941176 0 0 0 0 0.156863 0 0 0 0.1 0"/><feBlend in2="effect1_dropShadow_4151_187429" result="effect2_dropShadow_4151_187429"/><feBlend in="SourceGraphic" in2="effect2_dropShadow_4151_187429" result="shape"/></filter><filter id="d" x="12.5" y="12" width="33" height="33" filterUnits="userSpaceOnUse" color-interpolation-filters="sRGB"><feFlood flood-opacity="0" result="BackgroundImageFix"/><feColorMatrix in="SourceAlpha" values="0 0 0 0 0 0 0 0 0 0 0 0 0 0 0 0 0 0 127 0" result="hardAlpha"/><feOffset dy="1.5"/><feGaussianBlur stdDeviation="1.5"/><feColorMatrix values="0 0 0 0 0.0627451 0 0 0 0 0.0941176 0 0 0 0 0.156863 0 0 0 0.06 0"/><feBlend in2="BackgroundImageFix" result="effect1_dropShadow_4151_187429"/><feColorMatrix in="SourceAlpha" values="0 0 0 0 0 0 0 0 0 0 0 0 0 0 0 0 0 0 127 0" result="hardAlpha"/><feOffset dy="1.5"/><feGaussianBlur stdDeviation="2.25"/><feColorMatrix values="0 0 0 0 0.0627451 0 0 0 0 0.0941176 0 0 0 0 0.156863 0 0 0 0.1 0"/><feBlend in2="effect1_dropShadow_4151_187429" result="effect2_dropShadow_4151_187429"/><feBlend in="SourceGraphic" in2="effect2_dropShadow_4151_187429" result="shape"/></filter><filter id="f" x="-2.5" y="19.5" width="63" height="39" filterUnits="userSpaceOnUse" color-interpolation-filters="sRGB"><feFlood flood-opacity="0" result="BackgroundImageFix"/><feGaussianBlur in="BackgroundImageFix" stdDeviation="3.75"/><feComposite in2="SourceAlpha" operator="in" result="effect1_backgroundBlur_4151_187429"/><feBlend in="SourceGraphic" in2="effect1_backgroundBlur_4151_187429" result="shape"/></filter><linearGradient id="c" x1="29" y1="3" x2="29" y2="51" gradientUnits="userSpaceOnUse"><stop stop-color="#fff"/><stop offset="1" stop-color="#D0D5DD"/></linearGradient><linearGradient id="e" x1="23" y1="39" x2="35" y2="15" gradientUnits="userSpaceOnUse"><stop stop-color="#53389E"/><stop offset="1" stop-color="#6941C6"/></linearGradient><clipPath id="b"><rect x="5" y="3" width="48" height="48" rx="12" fill="#fff"/></clipPath></defs></svg>